<svg width="1153" height="913" viewBox="0 0 1153 913" fill="none" xmlns="http://www.w3.org/2000/svg">
<path d="M729.331 286.171L748.065 331.087L759.306 323.601L753.686 366.645L686.241 426.533L555.098 456.477L423.955 426.533L422.082 392.846L414.588 342.316L729.331 286.171Z" fill="white"/>
<path fill-rule="evenodd" clip-rule="evenodd" d="M728.915 283.845C730.007 283.65 731.087 284.24 731.514 285.262L749.144 327.529L757.994 321.635C758.766 321.121 759.767 321.105 760.555 321.594C761.343 322.084 761.771 322.988 761.651 323.906L756.031 366.951C755.957 367.515 755.683 368.033 755.257 368.411L687.812 428.299C687.515 428.563 687.156 428.748 686.768 428.836L555.625 458.78C555.278 458.859 554.918 458.859 554.571 458.78L423.429 428.836C422.401 428.601 421.653 427.715 421.594 426.664L419.727 393.085L412.249 342.662C412.061 341.398 412.914 340.214 414.173 339.99L728.915 283.845ZM417.264 344.238L424.422 392.5C424.432 392.571 424.44 392.643 424.444 392.715L426.218 424.626L555.098 454.053L685.123 424.365L751.455 365.465L756.288 328.45L749.377 333.053C748.789 333.444 748.056 333.553 747.38 333.348C746.703 333.143 746.154 332.647 745.882 331.995L727.878 288.83L417.264 344.238Z" fill="#FC6500"/>
<path d="M637.531 478.934C439.693 546.308 357.76 492.035 341.523 456.476C341.523 452.733 345.27 440.756 360.258 422.79C375.245 404.823 410.217 395.341 425.829 392.846V422.79C433.323 429.028 470.792 439.259 560.719 430.275C650.645 421.292 721.837 369.14 746.192 344.187L738.698 308.628C740.571 306.757 751.063 302.64 778.041 301.143C805.019 299.645 823.004 316.738 828.624 325.472C847.359 348.554 835.369 411.561 637.531 478.934Z" fill="#FC6500"/>
<path d="M592.568 361.03C660.012 347.555 714.343 306.757 733.078 288.042C719.963 252.484 715.092 175.753 710.596 153.295C704.976 125.222 699.355 50.3626 699.355 29.7762C699.355 13.3071 680.62 5.44667 671.253 3.57512C636.906 -1.41552 548.728 -5.03374 470.792 20.4186C388.36 35.3905 334.029 89.0399 317.168 113.993C327.784 146.432 352.389 216.177 365.878 235.64C379.367 255.104 406.47 334.829 418.335 372.259C448.311 374.131 525.123 374.505 592.568 361.03Z" fill="#FC6500"/>
<path d="M460.27 891.765L437.349 766.716L575.874 817.331L713.402 766.716L691.477 891.765L575.874 817.331L460.27 891.765Z" fill="#FC6500"/>
<path fill-rule="evenodd" clip-rule="evenodd" d="M423.655 750.486C429.476 745.574 437.482 744.156 444.637 746.771L575.847 794.713L706.067 746.788C713.196 744.164 721.184 745.548 727.014 750.418C732.844 755.287 735.629 762.9 734.317 770.383L712.393 895.432C711.164 902.439 706.509 908.366 699.992 911.218C693.475 914.071 685.962 913.47 679.981 909.619L575.874 842.587L471.766 909.619C465.809 913.455 458.332 914.067 451.831 911.251C445.329 908.435 440.661 902.562 439.383 895.594L416.462 770.544C415.089 763.052 417.833 755.398 423.655 750.486ZM575.874 817.331L691.477 891.765L713.402 766.716L575.874 817.331L437.349 766.716L460.27 891.765L575.874 817.331Z" fill="#FC6500"/>
<path d="M82.4669 714.306C66.4317 714.306 52.2707 711.61 39.984 706.218C27.6972 700.618 18.0136 692.738 10.9331 682.576C3.85262 672.206 0.20825 659.659 0 644.935H42.1706C42.5871 655.097 46.2314 663.703 53.1037 670.755C60.1842 677.598 69.8678 681.02 82.1545 681.02C92.7753 681.02 101.209 678.532 107.457 673.554C113.704 668.37 116.828 661.526 116.828 653.023C116.828 644.105 114.017 637.158 108.394 632.181C102.98 627.203 95.6908 623.159 86.5278 620.049C77.3648 616.938 67.5771 613.62 57.1646 610.094C40.2963 604.287 27.3848 596.821 18.4301 587.696C9.68361 578.571 5.31037 566.439 5.31037 551.3C5.10212 538.442 8.12174 527.451 14.3692 518.326C20.825 508.993 29.5715 501.838 40.6087 496.861C51.6459 491.676 64.3492 489.084 78.7184 489.084C93.2959 489.084 106.103 491.676 117.14 496.861C128.386 502.046 137.132 509.304 143.38 518.637C149.836 527.969 153.272 539.064 153.688 551.922H110.893C110.685 544.249 107.665 537.509 101.834 531.702C96.2114 525.688 88.2979 522.681 78.0937 522.681C69.3472 522.473 61.9543 524.651 55.9151 529.213C50.0841 533.568 47.1686 539.997 47.1686 548.5C47.1686 555.759 49.4593 561.566 54.0408 565.921C58.6223 570.068 64.8698 573.594 72.7833 576.497C80.6968 579.401 89.7557 582.512 99.9599 585.83C110.789 589.563 120.681 593.918 129.635 598.895C138.59 603.872 145.775 610.509 151.189 618.804C156.604 626.892 159.311 637.365 159.311 650.223C159.311 661.63 156.396 672.206 150.565 681.953C144.734 691.701 136.091 699.581 124.637 705.596C113.184 711.402 99.1269 714.306 82.4669 714.306Z" fill="#FC6500"/>
<path d="M252.923 710.573C236.68 710.573 223.664 706.632 213.877 698.752C204.089 690.871 199.195 676.873 199.195 656.756V589.563H172.643V556.277H199.195L203.881 514.904H239.179V556.277H281.037V589.563H239.179V657.067C239.179 664.533 240.741 669.718 243.865 672.621C247.197 675.317 252.819 676.665 260.733 676.665H280.1V710.573H252.923Z" fill="#FC6500"/>
<path d="M377.312 714.306C361.693 714.306 347.845 710.988 335.766 704.351C323.688 697.715 314.212 688.382 307.34 676.354C300.468 664.326 297.032 650.431 297.032 634.669C297.032 618.701 300.364 604.495 307.028 592.051C313.9 579.608 323.271 569.965 335.141 563.121C347.22 556.07 361.381 552.544 377.624 552.544C392.827 552.544 406.259 555.862 417.921 562.499C429.583 569.135 438.642 578.26 445.097 589.874C451.761 601.28 455.093 614.034 455.093 628.137C455.093 630.418 454.989 632.803 454.781 635.292C454.781 637.78 454.677 640.372 454.469 643.069H336.703C337.536 655.097 341.701 664.533 349.198 671.377C356.903 678.221 366.171 681.642 377 681.642C385.121 681.642 391.889 679.88 397.304 676.354C402.927 672.621 407.092 667.851 409.799 662.044H450.408C447.492 671.792 442.598 680.709 435.726 688.797C429.062 696.678 420.732 702.9 410.736 707.462C400.948 712.025 389.807 714.306 377.312 714.306ZM377.624 584.897C367.837 584.897 359.194 587.696 351.697 593.296C344.2 598.688 339.411 606.983 337.328 618.182H414.485C413.86 608.02 410.111 599.932 403.239 593.918C396.367 587.904 387.829 584.897 377.624 584.897Z" fill="#FC6500"/>
<path d="M503.55 710.573L458.256 556.277H497.928L524.792 667.333L556.029 556.277H600.387L631.624 667.333L658.801 556.277H698.472L652.865 710.573H611.32L578.208 595.162L545.096 710.573H503.55Z" fill="#FC6500"/>
<path d="M759.812 714.306C746.484 714.306 735.551 712.232 727.013 708.084C718.475 703.729 712.123 698.026 707.958 690.975C703.793 683.924 701.711 676.147 701.711 667.644C701.711 653.334 707.333 641.721 718.579 632.803C729.824 623.885 746.693 619.426 769.184 619.426H808.543V615.693C808.543 605.117 805.523 597.34 799.484 592.363C793.445 587.385 785.948 584.897 776.993 584.897C768.871 584.897 761.791 586.867 755.751 590.807C749.712 594.54 745.964 600.14 744.506 607.605H705.459C706.5 596.407 710.249 586.659 716.705 578.364C723.369 570.068 731.907 563.743 742.319 559.388C752.732 554.826 764.394 552.544 777.305 552.544C799.38 552.544 816.769 558.04 829.472 569.032C842.175 580.023 848.527 595.577 848.527 615.693V710.573H814.478L810.729 685.686C806.148 693.982 799.692 700.826 791.362 706.218C783.24 711.61 772.724 714.306 759.812 714.306ZM768.871 683.198C780.325 683.198 789.176 679.465 795.423 671.999C801.879 664.533 805.94 655.304 807.606 644.313H773.557C762.936 644.313 755.335 646.283 750.753 650.223C746.172 653.956 743.881 658.623 743.881 664.222C743.881 670.236 746.172 674.902 750.753 678.221C755.335 681.539 761.374 683.198 768.871 683.198Z" fill="#FC6500"/>
<path d="M877.311 710.573V556.277H912.922L916.671 585.208C922.293 575.253 929.895 567.372 939.474 561.566C949.262 555.551 960.716 552.544 973.835 552.544V594.54H962.59C953.843 594.54 946.034 595.888 939.162 598.584C932.289 601.28 926.875 605.946 922.918 612.583C919.17 619.219 917.295 628.448 917.295 640.269V710.573H877.311Z" fill="#FC6500"/>
<path d="M1060.27 714.306C1045.69 714.306 1032.67 710.78 1021.22 703.729C1009.77 696.678 1000.71 687.034 994.044 674.799C987.38 662.563 984.048 648.668 984.048 633.114C984.048 617.56 987.38 603.769 994.044 591.74C1000.71 579.505 1009.77 569.965 1021.22 563.121C1032.67 556.07 1045.69 552.544 1060.27 552.544C1071.93 552.544 1082.13 554.722 1090.88 559.077C1099.63 563.432 1106.71 569.55 1112.12 577.431V486.595H1152.11V710.573H1116.5L1112.12 688.486C1107.12 695.33 1100.46 701.344 1092.13 706.529C1084.01 711.713 1073.39 714.306 1060.27 714.306ZM1068.7 679.465C1081.61 679.465 1092.13 675.213 1100.25 666.711C1108.58 658 1112.75 646.905 1112.75 633.425C1112.75 619.945 1108.58 608.953 1100.25 600.451C1092.13 591.74 1081.61 587.385 1068.7 587.385C1056 587.385 1045.48 591.637 1037.15 600.14C1028.82 608.642 1024.66 619.634 1024.66 633.114C1024.66 646.594 1028.82 657.689 1037.15 666.399C1045.48 675.11 1056 679.465 1068.7 679.465Z" fill="#FC6500"/>
</svg>
